<svg viewBox="0 0 526 200" fill="none" xmlns="http://www.w3.org/2000/svg">
<path d="M8 0C3.58172 0 0 3.58173 0 8V192C0 196.418 3.58173 200 8 200H192C196.418 200 200 196.418 200 192V113H160V159C160 162.314 157.314 165 154 165H124.462C121.148 165 118.462 162.314 118.462 159V119C118.462 115.686 115.775 113 112.462 113H87.5385C84.2248 113 81.5385 115.686 81.5385 119V159C81.5385 162.314 78.8522 165 75.5385 165H46C42.6863 165 40 162.314 40 159V41C40 37.6863 42.6863 35 46 35H75.5385C78.8522 35 81.5385 37.6863 81.5385 41V79.1429C81.5385 82.4566 84.2248 85.1429 87.5385 85.1429H100V85H113.769C116.454 84.4033 118.462 82.0075 118.462 79.1429V41C118.462 37.6863 121.148 35 124.462 35H154C157.314 35 160 37.6863 160 41V85H200V8C200 3.58172 196.418 0 192 0H8Z"/>
<path d="M244.045 82.5455V36H253.886V55.2046H273.864V36H283.682V82.5455H273.864V63.3182H253.886V82.5455H244.045Z"/>
<path d="M310.723 83.2273C307.132 83.2273 304.041 82.5 301.45 81.0455C298.874 79.5758 296.889 77.5 295.495 74.8182C294.102 72.1212 293.405 68.9318 293.405 65.25C293.405 61.6591 294.102 58.5076 295.495 55.7955C296.889 53.0833 298.852 50.9697 301.382 49.4546C303.927 47.9394 306.912 47.1818 310.336 47.1818C312.639 47.1818 314.783 47.553 316.768 48.2955C318.768 49.0227 320.511 50.1212 321.995 51.5909C323.495 53.0606 324.662 54.9091 325.495 57.1364C326.329 59.3485 326.745 61.9394 326.745 64.9091V67.5682H297.268V61.5682H317.632C317.632 60.1743 317.329 58.9394 316.723 57.8637C316.117 56.7879 315.276 55.947 314.2 55.3409C313.139 54.7197 311.905 54.4091 310.495 54.4091C309.026 54.4091 307.723 54.75 306.586 55.4318C305.465 56.0985 304.586 57 303.95 58.1364C303.314 59.2576 302.988 60.5076 302.973 61.8864V67.5909C302.973 69.3182 303.291 70.8106 303.927 72.0682C304.579 73.3258 305.495 74.2955 306.677 74.9773C307.859 75.6591 309.261 76 310.882 76C311.958 76 312.942 75.8485 313.836 75.5455C314.73 75.2424 315.495 74.7879 316.132 74.1818C316.768 73.5758 317.253 72.8334 317.586 71.9546L326.541 72.5455C326.086 74.697 325.155 76.5758 323.745 78.1818C322.352 79.7727 320.548 81.0152 318.336 81.9091C316.139 82.7879 313.602 83.2273 310.723 83.2273Z"/>
<path d="M346.218 83.2046C343.991 83.2046 342.006 82.8182 340.264 82.0455C338.521 81.2576 337.142 80.0985 336.127 78.5682C335.127 77.0227 334.627 75.0985 334.627 72.7955C334.627 70.8561 334.983 69.2273 335.695 67.9091C336.408 66.5909 337.377 65.5303 338.605 64.7273C339.832 63.9243 341.226 63.3182 342.786 62.9091C344.362 62.5 346.014 62.2121 347.741 62.0455C349.771 61.8333 351.408 61.6364 352.65 61.4546C353.892 61.2576 354.794 60.9697 355.355 60.5909C355.915 60.2121 356.195 59.6515 356.195 58.9091V58.7727C356.195 57.3333 355.741 56.2197 354.832 55.4318C353.938 54.644 352.665 54.25 351.014 54.25C349.271 54.25 347.885 54.6364 346.855 55.4091C345.824 56.1667 345.142 57.1212 344.809 58.2727L335.855 57.5455C336.309 55.4243 337.203 53.5909 338.536 52.0455C339.87 50.4849 341.589 49.2879 343.695 48.4546C345.817 47.6061 348.271 47.1818 351.059 47.1818C352.998 47.1818 354.855 47.4091 356.627 47.8637C358.415 48.3182 359.998 49.0227 361.377 49.9773C362.771 50.9318 363.87 52.1591 364.673 53.6591C365.476 55.144 365.877 56.9243 365.877 59V82.5455H356.695V77.7046H356.423C355.862 78.7955 355.112 79.7576 354.173 80.5909C353.233 81.4091 352.105 82.053 350.786 82.5227C349.468 82.9773 347.945 83.2046 346.218 83.2046ZM348.991 76.5227C350.415 76.5227 351.673 76.2424 352.764 75.6818C353.855 75.1061 354.711 74.3334 355.332 73.3637C355.953 72.394 356.264 71.2955 356.264 70.0682V66.3637C355.961 66.5606 355.544 66.7424 355.014 66.9091C354.498 67.0606 353.915 67.2046 353.264 67.3409C352.612 67.4621 351.961 67.5758 351.309 67.6818C350.658 67.7727 350.067 67.8561 349.536 67.9318C348.4 68.0985 347.408 68.3637 346.559 68.7273C345.711 69.0909 345.052 69.5834 344.582 70.2046C344.112 70.8106 343.877 71.5682 343.877 72.4773C343.877 73.7955 344.355 74.803 345.309 75.5C346.279 76.1818 347.506 76.5227 348.991 76.5227Z"/>
<path d="M386.27 36V82.5455H376.589V36H386.27Z"/>
<path d="M415.794 47.6364V54.9091H394.772V47.6364H415.794ZM399.544 39.2727H409.226V71.8182C409.226 72.7121 409.363 73.4091 409.635 73.9091C409.908 74.394 410.287 74.7349 410.772 74.9318C411.272 75.1288 411.847 75.2273 412.499 75.2273C412.953 75.2273 413.408 75.1894 413.863 75.1137C414.317 75.0227 414.666 74.9546 414.908 74.9091L416.431 82.1137C415.946 82.2652 415.264 82.4394 414.385 82.6364C413.506 82.8485 412.438 82.9773 411.181 83.0227C408.847 83.1137 406.802 82.803 405.044 82.0909C403.302 81.3788 401.946 80.2727 400.976 78.7727C400.006 77.2727 399.529 75.3788 399.544 73.0909V39.2727Z"/>
<path d="M435.733 62.3637V82.5455H426.051V36H435.46V53.7955H435.869C436.657 51.7349 437.93 50.1212 439.688 48.9546C441.445 47.7727 443.65 47.1818 446.301 47.1818C448.725 47.1818 450.839 47.7121 452.642 48.7727C454.46 49.8182 455.869 51.3258 456.869 53.2955C457.884 55.25 458.384 57.5909 458.369 60.3182V82.5455H448.688V62.0455C448.703 59.894 448.157 58.2197 447.051 57.0227C445.96 55.8258 444.43 55.2273 442.46 55.2273C441.142 55.2273 439.975 55.5076 438.96 56.0682C437.96 56.6288 437.172 57.447 436.597 58.5227C436.036 59.5833 435.748 60.8637 435.733 62.3637Z"/>
<path d="M490.939 59.5909V67.2727H469.711V59.5909H490.939Z"/>
<path d="M285.114 132.295H275.159C274.977 131.008 274.606 129.864 274.045 128.864C273.485 127.848 272.765 126.985 271.886 126.273C271.008 125.561 269.992 125.015 268.841 124.636C267.705 124.258 266.47 124.068 265.136 124.068C262.727 124.068 260.629 124.667 258.841 125.864C257.053 127.045 255.667 128.773 254.682 131.045C253.697 133.303 253.205 136.045 253.205 139.273C253.205 142.591 253.697 145.379 254.682 147.636C255.682 149.894 257.076 151.599 258.864 152.75C260.652 153.902 262.72 154.477 265.068 154.477C266.386 154.477 267.606 154.303 268.727 153.955C269.864 153.606 270.871 153.098 271.75 152.432C272.629 151.75 273.356 150.924 273.932 149.955C274.523 148.985 274.932 147.879 275.159 146.636L285.114 146.682C284.856 148.818 284.212 150.879 283.182 152.864C282.167 154.833 280.795 156.598 279.068 158.159C277.356 159.705 275.311 160.932 272.932 161.841C270.568 162.735 267.894 163.182 264.909 163.182C260.758 163.182 257.045 162.242 253.773 160.364C250.515 158.485 247.939 155.765 246.045 152.205C244.167 148.644 243.227 144.333 243.227 139.273C243.227 134.197 244.182 129.879 246.091 126.318C248 122.758 250.591 120.045 253.864 118.182C257.136 116.303 260.818 115.364 264.909 115.364C267.606 115.364 270.106 115.742 272.409 116.5C274.727 117.258 276.78 118.364 278.568 119.818C280.356 121.258 281.811 123.023 282.932 125.114C284.068 127.205 284.795 129.599 285.114 132.295Z"/>
<path d="M310.961 163.227C307.431 163.227 304.378 162.477 301.802 160.977C299.242 159.462 297.264 157.356 295.87 154.659C294.477 151.947 293.78 148.803 293.78 145.227C293.78 141.621 294.477 138.47 295.87 135.773C297.264 133.061 299.242 130.955 301.802 129.455C304.378 127.939 307.431 127.182 310.961 127.182C314.492 127.182 317.537 127.939 320.098 129.455C322.673 130.955 324.658 133.061 326.052 135.773C327.446 138.47 328.143 141.621 328.143 145.227C328.143 148.803 327.446 151.947 326.052 154.659C324.658 157.356 322.673 159.462 320.098 160.977C317.537 162.477 314.492 163.227 310.961 163.227ZM311.007 155.727C312.613 155.727 313.954 155.273 315.03 154.364C316.105 153.439 316.916 152.182 317.461 150.591C318.022 149 318.302 147.189 318.302 145.159C318.302 143.129 318.022 141.318 317.461 139.727C316.916 138.136 316.105 136.879 315.03 135.955C313.954 135.03 312.613 134.568 311.007 134.568C309.386 134.568 308.022 135.03 306.916 135.955C305.825 136.879 304.999 138.136 304.439 139.727C303.893 141.318 303.62 143.129 303.62 145.159C303.62 147.189 303.893 149 304.439 150.591C304.999 152.182 305.825 153.439 306.916 154.364C308.022 155.273 309.386 155.727 311.007 155.727Z"/>
<path d="M347.32 142.364V162.545H337.639V127.636H346.866V133.795H347.275C348.048 131.765 349.343 130.159 351.161 128.977C352.98 127.78 355.184 127.182 357.775 127.182C360.199 127.182 362.313 127.712 364.116 128.773C365.919 129.833 367.32 131.349 368.32 133.318C369.32 135.273 369.82 137.606 369.82 140.318V162.545H360.139V142.045C360.154 139.909 359.608 138.242 358.502 137.045C357.396 135.833 355.873 135.227 353.934 135.227C352.631 135.227 351.48 135.508 350.48 136.068C349.495 136.629 348.722 137.447 348.161 138.523C347.616 139.583 347.336 140.864 347.32 142.364Z"/>
<path d="M390.333 142.364V162.545H380.651V127.636H389.878V133.795H390.288C391.06 131.765 392.356 130.159 394.174 128.977C395.992 127.78 398.197 127.182 400.788 127.182C403.212 127.182 405.325 127.712 407.128 128.773C408.931 129.833 410.333 131.349 411.333 133.318C412.333 135.273 412.833 137.606 412.833 140.318V162.545H403.151V142.045C403.166 139.909 402.621 138.242 401.515 137.045C400.409 135.833 398.886 135.227 396.947 135.227C395.644 135.227 394.492 135.508 393.492 136.068C392.507 136.629 391.734 137.447 391.174 138.523C390.628 139.583 390.348 140.864 390.333 142.364Z"/>
<path d="M439.573 163.227C435.982 163.227 432.891 162.5 430.3 161.045C427.724 159.576 425.739 157.5 424.345 154.818C422.952 152.121 422.255 148.932 422.255 145.25C422.255 141.659 422.952 138.508 424.345 135.795C425.739 133.083 427.702 130.97 430.232 129.455C432.777 127.939 435.762 127.182 439.186 127.182C441.489 127.182 443.633 127.553 445.618 128.295C447.618 129.023 449.361 130.121 450.845 131.591C452.345 133.061 453.512 134.909 454.345 137.136C455.179 139.349 455.595 141.939 455.595 144.909V147.568H426.118V141.568H446.482C446.482 140.174 446.179 138.939 445.573 137.864C444.967 136.788 444.126 135.947 443.05 135.341C441.989 134.72 440.755 134.409 439.345 134.409C437.876 134.409 436.573 134.75 435.436 135.432C434.315 136.098 433.436 137 432.8 138.136C432.164 139.258 431.838 140.508 431.823 141.886V147.591C431.823 149.318 432.141 150.811 432.777 152.068C433.429 153.326 434.345 154.295 435.527 154.977C436.709 155.659 438.111 156 439.732 156C440.808 156 441.792 155.849 442.686 155.545C443.58 155.242 444.345 154.788 444.982 154.182C445.618 153.576 446.103 152.833 446.436 151.955L455.391 152.545C454.936 154.697 454.005 156.576 452.595 158.182C451.202 159.773 449.398 161.015 447.186 161.909C444.989 162.788 442.452 163.227 439.573 163.227Z"/>
<path d="M480.886 163.227C477.311 163.227 474.235 162.47 471.659 160.955C469.098 159.424 467.129 157.303 465.75 154.591C464.386 151.879 463.705 148.758 463.705 145.227C463.705 141.652 464.394 138.515 465.773 135.818C467.167 133.106 469.144 130.992 471.705 129.477C474.265 127.947 477.311 127.182 480.841 127.182C483.886 127.182 486.553 127.735 488.841 128.841C491.129 129.947 492.939 131.5 494.273 133.5C495.606 135.5 496.341 137.849 496.477 140.545H487.341C487.083 138.803 486.402 137.402 485.295 136.341C484.205 135.265 482.773 134.727 481 134.727C479.5 134.727 478.189 135.136 477.068 135.955C475.962 136.758 475.098 137.932 474.477 139.477C473.856 141.023 473.545 142.894 473.545 145.091C473.545 147.318 473.848 149.212 474.455 150.773C475.076 152.333 475.947 153.523 477.068 154.341C478.189 155.159 479.5 155.568 481 155.568C482.106 155.568 483.098 155.341 483.977 154.886C484.871 154.432 485.606 153.773 486.182 152.909C486.773 152.03 487.159 150.977 487.341 149.75H496.477C496.326 152.417 495.598 154.765 494.295 156.795C493.008 158.811 491.227 160.386 488.955 161.523C486.682 162.659 483.992 163.227 480.886 163.227Z"/>
<path d="M524.444 127.636V134.909H503.422V127.636H524.444ZM508.194 119.273H517.876V151.818C517.876 152.712 518.012 153.409 518.285 153.909C518.558 154.394 518.937 154.735 519.422 154.932C519.922 155.129 520.497 155.227 521.149 155.227C521.603 155.227 522.058 155.189 522.513 155.114C522.967 155.023 523.316 154.955 523.558 154.909L525.081 162.114C524.596 162.265 523.914 162.439 523.035 162.636C522.156 162.849 521.088 162.977 519.831 163.023C517.497 163.114 515.452 162.803 513.694 162.091C511.952 161.379 510.596 160.273 509.626 158.773C508.656 157.273 508.179 155.379 508.194 153.091V119.273Z"/>
</svg>